<svg width="16" height="23" viewBox="0 0 16 23" fill="none" xmlns="http://www.w3.org/2000/svg">
<path d="M11.5 4C11.5 5.933 9.933 7.5 8 7.5C6.067 7.5 4.5 5.933 4.5 4C4.5 2.067 6.067 0.5 8 0.5C9.933 0.5 11.5 2.067 11.5 4Z" stroke="white"/>
<mask id="path-2-inside-1_0_1" fill="white">
<path d="M15 23C15.5523 23 16.0016 22.552 15.9844 22C15.863 18.1215 15.0389 14.4503 13.6569 11.6863C12.1566 8.68571 10.1217 7 8 7C5.87827 7 3.84344 8.68571 2.34315 11.6863C0.96114 14.4503 0.136991 18.1215 0.0156267 22C-0.00164651 22.552 0.447715 23 1 23L8 23H15Z"/>
</mask>
<path d="M15 23C15.5523 23 16.0016 22.552 15.9844 22C15.863 18.1215 15.0389 14.4503 13.6569 11.6863C12.1566 8.68571 10.1217 7 8 7C5.87827 7 3.84344 8.68571 2.34315 11.6863C0.96114 14.4503 0.136991 18.1215 0.0156267 22C-0.00164651 22.552 0.447715 23 1 23L8 23H15Z" stroke="white" stroke-width="2" mask="url(#path-2-inside-1_0_1)"/>
</svg>
