<svg width="20" height="20" viewBox="0 0 20 20" fill="none" xmlns="http://www.w3.org/2000/svg">
<circle cx="10" cy="10" r="9.5" stroke="white"/>
<path d="M19.5 10C19.5 10.3705 19.3143 10.7741 18.8706 11.1937C18.4258 11.6144 17.7553 12.0162 16.8854 12.3642C15.1482 13.059 12.7141 13.5 10 13.5C7.2859 13.5 4.85177 13.059 3.11463 12.3642C2.24467 12.0162 1.5742 11.6144 1.1294 11.1937C0.685661 10.7741 0.5 10.3705 0.5 10C0.5 9.6295 0.685661 9.22595 1.1294 8.8063C1.5742 8.38565 2.24467 7.98379 3.11463 7.63581C4.85177 6.94095 7.2859 6.5 10 6.5C12.7141 6.5 15.1482 6.94095 16.8854 7.63581C17.7553 7.98379 18.4258 8.38565 18.8706 8.8063C19.3143 9.22595 19.5 9.6295 19.5 10Z" stroke="white"/>
<path d="M13.5 10C13.5 12.7141 13.059 15.1482 12.3642 16.8854C12.0162 17.7553 11.6144 18.4258 11.1937 18.8706C10.7741 19.3143 10.3705 19.5 10 19.5C9.6295 19.5 9.22595 19.3143 8.8063 18.8706C8.38565 18.4258 7.98379 17.7553 7.63581 16.8854C6.94095 15.1482 6.5 12.7141 6.5 10C6.5 7.2859 6.94095 4.85177 7.63581 3.11463C7.98379 2.24467 8.38565 1.5742 8.8063 1.1294C9.22595 0.685661 9.6295 0.5 10 0.5C10.3705 0.5 10.7741 0.685661 11.1937 1.1294C11.6144 1.5742 12.0162 2.24467 12.3642 3.11463C13.059 4.85177 13.5 7.2859 13.5 10Z" stroke="white"/>
</svg>
